<mxfile host="app.diagrams.net" agent="Mozilla/5.0 (Windows NT 10.0; Win64; x64) AppleWebKit/537.36 (KHTML, like Gecko) Chrome/128.0.0.0 Safari/537.36" version="24.7.16">
  <diagram name="Страница — 1" id="4j2fhUW6OF-kj67QKV7w">
    <mxGraphModel dx="2261" dy="1875" grid="1" gridSize="10" guides="1" tooltips="1" connect="1" arrows="1" fold="1" page="1" pageScale="1" pageWidth="827" pageHeight="1169" math="0" shadow="0">
      <root>
        <mxCell id="0" />
        <mxCell id="1" parent="0" />
        <mxCell id="I4nIWvLqw0dqqEzSKCfI-119" value="" style="rounded=0;whiteSpace=wrap;html=1;" parent="1" vertex="1">
          <mxGeometry x="50" y="-140" width="580" height="860" as="geometry" />
        </mxCell>
        <mxCell id="I4nIWvLqw0dqqEzSKCfI-120" value="Гость" style="shape=umlActor;verticalLabelPosition=bottom;verticalAlign=top;html=1;outlineConnect=0;" parent="1" vertex="1">
          <mxGeometry x="-20" y="-50" width="30" height="60" as="geometry" />
        </mxCell>
        <mxCell id="I4nIWvLqw0dqqEzSKCfI-121" value="Пользователь" style="shape=umlActor;verticalLabelPosition=bottom;verticalAlign=top;html=1;outlineConnect=0;" parent="1" vertex="1">
          <mxGeometry x="-20" y="110" width="30" height="60" as="geometry" />
        </mxCell>
        <mxCell id="I4nIWvLqw0dqqEzSKCfI-122" value="Управляющий приютом" style="shape=umlActor;verticalLabelPosition=bottom;verticalAlign=top;html=1;outlineConnect=0;" parent="1" vertex="1">
          <mxGeometry x="-40" y="230" width="30" height="60" as="geometry" />
        </mxCell>
        <mxCell id="I4nIWvLqw0dqqEzSKCfI-123" value="Администратор" style="shape=umlActor;verticalLabelPosition=bottom;verticalAlign=top;html=1;outlineConnect=0;" parent="1" vertex="1">
          <mxGeometry x="-20" y="460" width="30" height="60" as="geometry" />
        </mxCell>
        <mxCell id="I4nIWvLqw0dqqEzSKCfI-124" value="регистрация" style="ellipse;whiteSpace=wrap;html=1;" parent="1" vertex="1">
          <mxGeometry x="60" y="20" width="75" height="50" as="geometry" />
        </mxCell>
        <mxCell id="I4nIWvLqw0dqqEzSKCfI-125" value="авторизация" style="ellipse;whiteSpace=wrap;html=1;" parent="1" vertex="1">
          <mxGeometry x="140" y="25" width="75" height="50" as="geometry" />
        </mxCell>
        <mxCell id="I4nIWvLqw0dqqEzSKCfI-126" value="" style="endArrow=classic;html=1;rounded=0;exitX=1;exitY=0.3333333333333333;exitDx=0;exitDy=0;exitPerimeter=0;entryX=0;entryY=1;entryDx=0;entryDy=0;" parent="1" source="I4nIWvLqw0dqqEzSKCfI-121" target="I4nIWvLqw0dqqEzSKCfI-124" edge="1">
          <mxGeometry width="50" height="50" relative="1" as="geometry">
            <mxPoint x="20" y="140" as="sourcePoint" />
            <mxPoint x="140" y="130" as="targetPoint" />
          </mxGeometry>
        </mxCell>
        <mxCell id="I4nIWvLqw0dqqEzSKCfI-127" value="" style="endArrow=classic;html=1;rounded=0;exitX=1;exitY=0.3333333333333333;exitDx=0;exitDy=0;exitPerimeter=0;entryX=0;entryY=1;entryDx=0;entryDy=0;" parent="1" source="I4nIWvLqw0dqqEzSKCfI-121" target="I4nIWvLqw0dqqEzSKCfI-125" edge="1">
          <mxGeometry width="50" height="50" relative="1" as="geometry">
            <mxPoint x="130" y="220" as="sourcePoint" />
            <mxPoint x="180" y="170" as="targetPoint" />
          </mxGeometry>
        </mxCell>
        <mxCell id="I4nIWvLqw0dqqEzSKCfI-128" value="" style="endArrow=block;html=1;rounded=0;endFill=0;" parent="1" edge="1">
          <mxGeometry width="50" height="50" relative="1" as="geometry">
            <mxPoint x="-5" y="100" as="sourcePoint" />
            <mxPoint x="-5" y="40" as="targetPoint" />
          </mxGeometry>
        </mxCell>
        <mxCell id="I4nIWvLqw0dqqEzSKCfI-129" value="просмотр типов животных" style="ellipse;whiteSpace=wrap;html=1;" parent="1" vertex="1">
          <mxGeometry x="200" y="-130" width="90" height="60" as="geometry" />
        </mxCell>
        <mxCell id="I4nIWvLqw0dqqEzSKCfI-130" value="просмотр возможных заболеваний животных" style="ellipse;whiteSpace=wrap;html=1;" parent="1" vertex="1">
          <mxGeometry x="237.5" y="-55" width="105" height="70" as="geometry" />
        </mxCell>
        <mxCell id="I4nIWvLqw0dqqEzSKCfI-131" value="" style="endArrow=classic;html=1;rounded=0;exitX=1;exitY=0.3333333333333333;exitDx=0;exitDy=0;exitPerimeter=0;entryX=0;entryY=0.5;entryDx=0;entryDy=0;" parent="1" source="I4nIWvLqw0dqqEzSKCfI-120" target="I4nIWvLqw0dqqEzSKCfI-129" edge="1">
          <mxGeometry width="50" height="50" relative="1" as="geometry">
            <mxPoint x="160" y="20" as="sourcePoint" />
            <mxPoint x="210" y="-30" as="targetPoint" />
          </mxGeometry>
        </mxCell>
        <mxCell id="I4nIWvLqw0dqqEzSKCfI-132" value="" style="endArrow=classic;html=1;rounded=0;entryX=0;entryY=0.5;entryDx=0;entryDy=0;" parent="1" target="I4nIWvLqw0dqqEzSKCfI-130" edge="1">
          <mxGeometry width="50" height="50" relative="1" as="geometry">
            <mxPoint x="10" y="-30" as="sourcePoint" />
            <mxPoint x="150" y="-10" as="targetPoint" />
          </mxGeometry>
        </mxCell>
        <mxCell id="I4nIWvLqw0dqqEzSKCfI-133" value="" style="endArrow=classic;html=1;rounded=0;exitX=1;exitY=0.3333333333333333;exitDx=0;exitDy=0;exitPerimeter=0;" parent="1" source="I4nIWvLqw0dqqEzSKCfI-122" target="I4nIWvLqw0dqqEzSKCfI-134" edge="1">
          <mxGeometry width="50" height="50" relative="1" as="geometry">
            <mxPoint x="60" y="250" as="sourcePoint" />
            <mxPoint x="120" y="250" as="targetPoint" />
          </mxGeometry>
        </mxCell>
        <mxCell id="I4nIWvLqw0dqqEzSKCfI-134" value="Управление животными в приюте" style="ellipse;whiteSpace=wrap;html=1;" parent="1" vertex="1">
          <mxGeometry x="315" y="110" width="90" height="60" as="geometry" />
        </mxCell>
        <mxCell id="I4nIWvLqw0dqqEzSKCfI-135" value="Добавление животного" style="ellipse;whiteSpace=wrap;html=1;" parent="1" vertex="1">
          <mxGeometry x="420" y="40" width="75" height="50" as="geometry" />
        </mxCell>
        <mxCell id="I4nIWvLqw0dqqEzSKCfI-136" value="Редактирование информации о животном" style="ellipse;whiteSpace=wrap;html=1;" parent="1" vertex="1">
          <mxGeometry x="515" y="105" width="105" height="70" as="geometry" />
        </mxCell>
        <mxCell id="I4nIWvLqw0dqqEzSKCfI-137" value="Удаление животного" style="ellipse;whiteSpace=wrap;html=1;" parent="1" vertex="1">
          <mxGeometry x="420" y="190" width="75" height="50" as="geometry" />
        </mxCell>
        <mxCell id="I4nIWvLqw0dqqEzSKCfI-138" value="" style="endArrow=classic;html=1;rounded=0;exitX=0;exitY=1;exitDx=0;exitDy=0;entryX=1;entryY=0;entryDx=0;entryDy=0;" parent="1" source="I4nIWvLqw0dqqEzSKCfI-135" target="I4nIWvLqw0dqqEzSKCfI-134" edge="1">
          <mxGeometry width="50" height="50" relative="1" as="geometry">
            <mxPoint x="240" y="360" as="sourcePoint" />
            <mxPoint x="290" y="310" as="targetPoint" />
          </mxGeometry>
        </mxCell>
        <mxCell id="I4nIWvLqw0dqqEzSKCfI-139" value="&amp;lt;&amp;lt;extend&amp;gt;&amp;gt;" style="edgeLabel;html=1;align=center;verticalAlign=middle;resizable=0;points=[];" parent="I4nIWvLqw0dqqEzSKCfI-138" vertex="1" connectable="0">
          <mxGeometry x="-0.0763" y="2" relative="1" as="geometry">
            <mxPoint as="offset" />
          </mxGeometry>
        </mxCell>
        <mxCell id="I4nIWvLqw0dqqEzSKCfI-140" value="" style="endArrow=classic;html=1;rounded=0;exitX=0;exitY=0.5;exitDx=0;exitDy=0;entryX=1;entryY=0.5;entryDx=0;entryDy=0;" parent="1" source="I4nIWvLqw0dqqEzSKCfI-136" target="I4nIWvLqw0dqqEzSKCfI-134" edge="1">
          <mxGeometry width="50" height="50" relative="1" as="geometry">
            <mxPoint x="410" y="190" as="sourcePoint" />
            <mxPoint x="397" y="229" as="targetPoint" />
          </mxGeometry>
        </mxCell>
        <mxCell id="I4nIWvLqw0dqqEzSKCfI-141" value="&amp;lt;&amp;lt;extend&amp;gt;&amp;gt;" style="edgeLabel;html=1;align=center;verticalAlign=middle;resizable=0;points=[];" parent="I4nIWvLqw0dqqEzSKCfI-140" vertex="1" connectable="0">
          <mxGeometry x="-0.05" relative="1" as="geometry">
            <mxPoint as="offset" />
          </mxGeometry>
        </mxCell>
        <mxCell id="I4nIWvLqw0dqqEzSKCfI-142" value="" style="endArrow=classic;html=1;rounded=0;exitX=0;exitY=0;exitDx=0;exitDy=0;entryX=1;entryY=1;entryDx=0;entryDy=0;" parent="1" source="I4nIWvLqw0dqqEzSKCfI-137" target="I4nIWvLqw0dqqEzSKCfI-134" edge="1">
          <mxGeometry width="50" height="50" relative="1" as="geometry">
            <mxPoint x="460" y="250" as="sourcePoint" />
            <mxPoint x="410" y="250" as="targetPoint" />
          </mxGeometry>
        </mxCell>
        <mxCell id="I4nIWvLqw0dqqEzSKCfI-143" value="&amp;lt;&amp;lt;extend&amp;gt;&amp;gt;" style="edgeLabel;html=1;align=center;verticalAlign=middle;resizable=0;points=[];" parent="I4nIWvLqw0dqqEzSKCfI-142" vertex="1" connectable="0">
          <mxGeometry x="-0.0057" relative="1" as="geometry">
            <mxPoint as="offset" />
          </mxGeometry>
        </mxCell>
        <mxCell id="I4nIWvLqw0dqqEzSKCfI-144" value="Обработка запросов на получение животного из приюта" style="ellipse;whiteSpace=wrap;html=1;" parent="1" vertex="1">
          <mxGeometry x="370" y="355" width="150" height="100" as="geometry" />
        </mxCell>
        <mxCell id="I4nIWvLqw0dqqEzSKCfI-145" value="" style="endArrow=classic;html=1;rounded=0;exitX=1;exitY=0.3333333333333333;exitDx=0;exitDy=0;exitPerimeter=0;entryX=0;entryY=0.5;entryDx=0;entryDy=0;" parent="1" source="I4nIWvLqw0dqqEzSKCfI-122" target="I4nIWvLqw0dqqEzSKCfI-144" edge="1">
          <mxGeometry width="50" height="50" relative="1" as="geometry">
            <mxPoint x="100" y="340" as="sourcePoint" />
            <mxPoint x="150" y="290" as="targetPoint" />
          </mxGeometry>
        </mxCell>
        <mxCell id="I4nIWvLqw0dqqEzSKCfI-146" value="Чтение запроса" style="ellipse;whiteSpace=wrap;html=1;" parent="1" vertex="1">
          <mxGeometry x="530" y="470" width="75" height="50" as="geometry" />
        </mxCell>
        <mxCell id="I4nIWvLqw0dqqEzSKCfI-147" value="" style="endArrow=classic;html=1;rounded=0;entryX=1;entryY=1;entryDx=0;entryDy=0;exitX=0;exitY=0;exitDx=0;exitDy=0;" parent="1" source="I4nIWvLqw0dqqEzSKCfI-146" target="I4nIWvLqw0dqqEzSKCfI-144" edge="1">
          <mxGeometry width="50" height="50" relative="1" as="geometry">
            <mxPoint x="540" y="462.5" as="sourcePoint" />
            <mxPoint x="590" y="412.5" as="targetPoint" />
          </mxGeometry>
        </mxCell>
        <mxCell id="I4nIWvLqw0dqqEzSKCfI-148" value="&amp;lt;&amp;lt;extend&amp;gt;&amp;gt;" style="edgeLabel;html=1;align=center;verticalAlign=middle;resizable=0;points=[];" parent="I4nIWvLqw0dqqEzSKCfI-147" vertex="1" connectable="0">
          <mxGeometry x="-0.2199" relative="1" as="geometry">
            <mxPoint as="offset" />
          </mxGeometry>
        </mxCell>
        <mxCell id="I4nIWvLqw0dqqEzSKCfI-149" value="Ответ на запрос" style="ellipse;whiteSpace=wrap;html=1;" parent="1" vertex="1">
          <mxGeometry x="540" y="290" width="75" height="50" as="geometry" />
        </mxCell>
        <mxCell id="I4nIWvLqw0dqqEzSKCfI-150" value="" style="endArrow=classic;html=1;rounded=0;exitX=0;exitY=1;exitDx=0;exitDy=0;entryX=1;entryY=0;entryDx=0;entryDy=0;" parent="1" source="I4nIWvLqw0dqqEzSKCfI-149" target="I4nIWvLqw0dqqEzSKCfI-144" edge="1">
          <mxGeometry width="50" height="50" relative="1" as="geometry">
            <mxPoint x="580" y="392.5" as="sourcePoint" />
            <mxPoint x="630" y="342.5" as="targetPoint" />
          </mxGeometry>
        </mxCell>
        <mxCell id="I4nIWvLqw0dqqEzSKCfI-151" value="&amp;lt;&amp;lt;extend&amp;gt;&amp;gt;" style="edgeLabel;html=1;align=center;verticalAlign=middle;resizable=0;points=[];" parent="I4nIWvLqw0dqqEzSKCfI-150" vertex="1" connectable="0">
          <mxGeometry x="-0.2143" y="1" relative="1" as="geometry">
            <mxPoint as="offset" />
          </mxGeometry>
        </mxCell>
        <mxCell id="I4nIWvLqw0dqqEzSKCfI-152" value="Блокировать пользователя или управляющего приютом" style="ellipse;whiteSpace=wrap;html=1;" parent="1" vertex="1">
          <mxGeometry x="197.5" y="420" width="112.5" height="75" as="geometry" />
        </mxCell>
        <mxCell id="I4nIWvLqw0dqqEzSKCfI-153" value="" style="endArrow=classic;html=1;rounded=0;exitX=1;exitY=0.3333333333333333;exitDx=0;exitDy=0;exitPerimeter=0;entryX=0;entryY=0.5;entryDx=0;entryDy=0;" parent="1" source="I4nIWvLqw0dqqEzSKCfI-123" target="I4nIWvLqw0dqqEzSKCfI-152" edge="1">
          <mxGeometry width="50" height="50" relative="1" as="geometry">
            <mxPoint x="70" y="595" as="sourcePoint" />
            <mxPoint x="120" y="545" as="targetPoint" />
          </mxGeometry>
        </mxCell>
        <mxCell id="I4nIWvLqw0dqqEzSKCfI-154" value="Управлять списком возможных заболеваний" style="ellipse;whiteSpace=wrap;html=1;" parent="1" vertex="1">
          <mxGeometry x="266.25" y="532.5" width="135" height="90" as="geometry" />
        </mxCell>
        <mxCell id="I4nIWvLqw0dqqEzSKCfI-155" value="Удалять заболевание" style="ellipse;whiteSpace=wrap;html=1;" parent="1" vertex="1">
          <mxGeometry x="422.5" y="640" width="90" height="60" as="geometry" />
        </mxCell>
        <mxCell id="I4nIWvLqw0dqqEzSKCfI-156" value="" style="endArrow=classic;html=1;rounded=0;entryX=1;entryY=1;entryDx=0;entryDy=0;exitX=0;exitY=0;exitDx=0;exitDy=0;" parent="1" source="I4nIWvLqw0dqqEzSKCfI-155" target="I4nIWvLqw0dqqEzSKCfI-154" edge="1">
          <mxGeometry width="50" height="50" relative="1" as="geometry">
            <mxPoint x="402.5" y="670" as="sourcePoint" />
            <mxPoint x="452.5" y="620" as="targetPoint" />
          </mxGeometry>
        </mxCell>
        <mxCell id="I4nIWvLqw0dqqEzSKCfI-157" value="&amp;lt;&amp;lt;extend&amp;gt;&amp;gt;" style="edgeLabel;html=1;align=center;verticalAlign=middle;resizable=0;points=[];" parent="I4nIWvLqw0dqqEzSKCfI-156" vertex="1" connectable="0">
          <mxGeometry x="-0.2361" relative="1" as="geometry">
            <mxPoint as="offset" />
          </mxGeometry>
        </mxCell>
        <mxCell id="I4nIWvLqw0dqqEzSKCfI-158" value="Редактировать заболевание" style="ellipse;whiteSpace=wrap;html=1;" parent="1" vertex="1">
          <mxGeometry x="512.5" y="547.5" width="90" height="60" as="geometry" />
        </mxCell>
        <mxCell id="I4nIWvLqw0dqqEzSKCfI-159" value="Добавлять заболевание" style="ellipse;whiteSpace=wrap;html=1;" parent="1" vertex="1">
          <mxGeometry x="432.5" y="470" width="90" height="60" as="geometry" />
        </mxCell>
        <mxCell id="I4nIWvLqw0dqqEzSKCfI-160" value="" style="endArrow=classic;html=1;rounded=0;entryX=1;entryY=0.5;entryDx=0;entryDy=0;exitX=0;exitY=0.5;exitDx=0;exitDy=0;" parent="1" source="I4nIWvLqw0dqqEzSKCfI-158" target="I4nIWvLqw0dqqEzSKCfI-154" edge="1">
          <mxGeometry width="50" height="50" relative="1" as="geometry">
            <mxPoint x="442.5" y="640" as="sourcePoint" />
            <mxPoint x="492.5" y="590" as="targetPoint" />
          </mxGeometry>
        </mxCell>
        <mxCell id="I4nIWvLqw0dqqEzSKCfI-161" value="&amp;lt;&amp;lt;extend&amp;gt;&amp;gt;" style="edgeLabel;html=1;align=center;verticalAlign=middle;resizable=0;points=[];" parent="I4nIWvLqw0dqqEzSKCfI-160" vertex="1" connectable="0">
          <mxGeometry x="-0.1556" y="-1" relative="1" as="geometry">
            <mxPoint as="offset" />
          </mxGeometry>
        </mxCell>
        <mxCell id="I4nIWvLqw0dqqEzSKCfI-162" value="" style="endArrow=classic;html=1;rounded=0;entryX=1;entryY=0;entryDx=0;entryDy=0;exitX=0;exitY=1;exitDx=0;exitDy=0;" parent="1" source="I4nIWvLqw0dqqEzSKCfI-159" target="I4nIWvLqw0dqqEzSKCfI-154" edge="1">
          <mxGeometry width="50" height="50" relative="1" as="geometry">
            <mxPoint x="552.5" y="610" as="sourcePoint" />
            <mxPoint x="425.5" y="588" as="targetPoint" />
          </mxGeometry>
        </mxCell>
        <mxCell id="I4nIWvLqw0dqqEzSKCfI-163" value="&amp;lt;&amp;lt;extend&amp;gt;&amp;gt;" style="edgeLabel;html=1;align=center;verticalAlign=middle;resizable=0;points=[];" parent="I4nIWvLqw0dqqEzSKCfI-162" vertex="1" connectable="0">
          <mxGeometry x="-0.1763" relative="1" as="geometry">
            <mxPoint as="offset" />
          </mxGeometry>
        </mxCell>
        <mxCell id="I4nIWvLqw0dqqEzSKCfI-164" value="" style="endArrow=classic;html=1;rounded=0;exitX=1;exitY=0.3333333333333333;exitDx=0;exitDy=0;exitPerimeter=0;entryX=0;entryY=0.5;entryDx=0;entryDy=0;" parent="1" source="I4nIWvLqw0dqqEzSKCfI-123" target="I4nIWvLqw0dqqEzSKCfI-154" edge="1">
          <mxGeometry width="50" height="50" relative="1" as="geometry">
            <mxPoint x="60" y="600" as="sourcePoint" />
            <mxPoint x="110" y="550" as="targetPoint" />
          </mxGeometry>
        </mxCell>
        <mxCell id="I4nIWvLqw0dqqEzSKCfI-165" value="Создания запроса на получение животного" style="ellipse;whiteSpace=wrap;html=1;" parent="1" vertex="1">
          <mxGeometry x="230" y="25" width="120" height="80" as="geometry" />
        </mxCell>
        <mxCell id="I4nIWvLqw0dqqEzSKCfI-166" value="Редактирования информации о приюте" style="ellipse;whiteSpace=wrap;html=1;" parent="1" vertex="1">
          <mxGeometry x="60" y="120" width="120" height="80" as="geometry" />
        </mxCell>
        <mxCell id="I4nIWvLqw0dqqEzSKCfI-167" value="" style="endArrow=classic;html=1;rounded=0;entryX=0;entryY=1;entryDx=0;entryDy=0;exitX=1;exitY=0.3333333333333333;exitDx=0;exitDy=0;exitPerimeter=0;" parent="1" source="I4nIWvLqw0dqqEzSKCfI-122" target="I4nIWvLqw0dqqEzSKCfI-166" edge="1">
          <mxGeometry width="50" height="50" relative="1" as="geometry">
            <mxPoint x="10" y="250" as="sourcePoint" />
            <mxPoint x="200" y="270" as="targetPoint" />
          </mxGeometry>
        </mxCell>
        <mxCell id="I4nIWvLqw0dqqEzSKCfI-168" value="" style="endArrow=classic;html=1;rounded=0;entryX=0;entryY=1;entryDx=0;entryDy=0;" parent="1" target="I4nIWvLqw0dqqEzSKCfI-165" edge="1">
          <mxGeometry width="50" height="50" relative="1" as="geometry">
            <mxPoint x="10" y="130" as="sourcePoint" />
            <mxPoint x="238" y="208" as="targetPoint" />
          </mxGeometry>
        </mxCell>
        <mxCell id="I4nIWvLqw0dqqEzSKCfI-169" value="Просмотр списка животных из приютов" style="ellipse;whiteSpace=wrap;html=1;" parent="1" vertex="1">
          <mxGeometry x="330" y="-120" width="120" height="80" as="geometry" />
        </mxCell>
        <mxCell id="I4nIWvLqw0dqqEzSKCfI-170" value="" style="endArrow=classic;html=1;rounded=0;exitX=1;exitY=0.3333333333333333;exitDx=0;exitDy=0;exitPerimeter=0;" parent="1" source="I4nIWvLqw0dqqEzSKCfI-120" target="I4nIWvLqw0dqqEzSKCfI-169" edge="1">
          <mxGeometry width="50" height="50" relative="1" as="geometry">
            <mxPoint x="460" as="sourcePoint" />
            <mxPoint x="510" y="-50" as="targetPoint" />
          </mxGeometry>
        </mxCell>
        <mxCell id="I4nIWvLqw0dqqEzSKCfI-171" value="" style="endArrow=classic;html=1;rounded=0;entryX=1;entryY=1;entryDx=0;entryDy=0;exitX=0;exitY=0;exitDx=0;exitDy=0;" parent="1" source="I4nIWvLqw0dqqEzSKCfI-173" target="I4nIWvLqw0dqqEzSKCfI-169" edge="1">
          <mxGeometry width="50" height="50" relative="1" as="geometry">
            <mxPoint x="480" y="20" as="sourcePoint" />
            <mxPoint x="520" y="-20" as="targetPoint" />
          </mxGeometry>
        </mxCell>
        <mxCell id="I4nIWvLqw0dqqEzSKCfI-172" value="&amp;lt;&amp;lt;extend&amp;gt;&amp;gt;" style="edgeLabel;html=1;align=center;verticalAlign=middle;resizable=0;points=[];" parent="I4nIWvLqw0dqqEzSKCfI-171" vertex="1" connectable="0">
          <mxGeometry x="-0.2812" y="-1" relative="1" as="geometry">
            <mxPoint as="offset" />
          </mxGeometry>
        </mxCell>
        <mxCell id="I4nIWvLqw0dqqEzSKCfI-173" value="Поиск по критериям&amp;nbsp;" style="ellipse;whiteSpace=wrap;html=1;" parent="1" vertex="1">
          <mxGeometry x="455" y="-25" width="75" height="50" as="geometry" />
        </mxCell>
        <mxCell id="I4nIWvLqw0dqqEzSKCfI-175" value="Регистрация приюта" style="ellipse;whiteSpace=wrap;html=1;" parent="1" vertex="1">
          <mxGeometry x="180" y="355" width="75" height="50" as="geometry" />
        </mxCell>
        <mxCell id="I4nIWvLqw0dqqEzSKCfI-176" value="Авторизация в аккаунт приюта" style="ellipse;whiteSpace=wrap;html=1;" parent="1" vertex="1">
          <mxGeometry x="60" y="340" width="105" height="70" as="geometry" />
        </mxCell>
        <mxCell id="I4nIWvLqw0dqqEzSKCfI-177" value="" style="endArrow=classic;html=1;rounded=0;exitX=1;exitY=0.3333333333333333;exitDx=0;exitDy=0;exitPerimeter=0;" parent="1" source="I4nIWvLqw0dqqEzSKCfI-122" target="I4nIWvLqw0dqqEzSKCfI-176" edge="1">
          <mxGeometry width="50" height="50" relative="1" as="geometry">
            <mxPoint x="120" y="340" as="sourcePoint" />
            <mxPoint x="170" y="290" as="targetPoint" />
          </mxGeometry>
        </mxCell>
        <mxCell id="I4nIWvLqw0dqqEzSKCfI-178" value="" style="endArrow=classic;html=1;rounded=0;exitX=1;exitY=0.3333333333333333;exitDx=0;exitDy=0;exitPerimeter=0;entryX=0;entryY=0;entryDx=0;entryDy=0;" parent="1" source="I4nIWvLqw0dqqEzSKCfI-122" target="I4nIWvLqw0dqqEzSKCfI-175" edge="1">
          <mxGeometry width="50" height="50" relative="1" as="geometry">
            <mxPoint x="210" y="340" as="sourcePoint" />
            <mxPoint x="-10" y="370" as="targetPoint" />
          </mxGeometry>
        </mxCell>
        <mxCell id="DdBf_UqQ4syLSRsf3nNw-1" value="Управление заболеваниями животного" style="ellipse;whiteSpace=wrap;html=1;" vertex="1" parent="1">
          <mxGeometry x="165" y="245" width="90" height="60" as="geometry" />
        </mxCell>
        <mxCell id="DdBf_UqQ4syLSRsf3nNw-2" value="" style="endArrow=classic;html=1;rounded=0;exitX=1;exitY=0.3333333333333333;exitDx=0;exitDy=0;exitPerimeter=0;entryX=0;entryY=0.5;entryDx=0;entryDy=0;" edge="1" parent="1" source="I4nIWvLqw0dqqEzSKCfI-122" target="DdBf_UqQ4syLSRsf3nNw-1">
          <mxGeometry width="50" height="50" relative="1" as="geometry">
            <mxPoint y="260" as="sourcePoint" />
            <mxPoint x="320" y="251" as="targetPoint" />
          </mxGeometry>
        </mxCell>
        <mxCell id="DdBf_UqQ4syLSRsf3nNw-4" value="Удаление заболевания" style="ellipse;whiteSpace=wrap;html=1;" vertex="1" parent="1">
          <mxGeometry x="288.75" y="315" width="90" height="60" as="geometry" />
        </mxCell>
        <mxCell id="DdBf_UqQ4syLSRsf3nNw-5" value="Добавление заболевания" style="ellipse;whiteSpace=wrap;html=1;" vertex="1" parent="1">
          <mxGeometry x="277.5" y="175" width="90" height="60" as="geometry" />
        </mxCell>
        <mxCell id="DdBf_UqQ4syLSRsf3nNw-6" value="Редактирование заболевания" style="ellipse;whiteSpace=wrap;html=1;" vertex="1" parent="1">
          <mxGeometry x="355" y="245" width="90" height="60" as="geometry" />
        </mxCell>
        <mxCell id="DdBf_UqQ4syLSRsf3nNw-7" value="" style="endArrow=classic;html=1;rounded=0;exitX=0;exitY=1;exitDx=0;exitDy=0;entryX=1;entryY=0;entryDx=0;entryDy=0;" edge="1" parent="1" source="DdBf_UqQ4syLSRsf3nNw-5" target="DdBf_UqQ4syLSRsf3nNw-1">
          <mxGeometry width="50" height="50" relative="1" as="geometry">
            <mxPoint x="525" y="150" as="sourcePoint" />
            <mxPoint x="415" y="150" as="targetPoint" />
          </mxGeometry>
        </mxCell>
        <mxCell id="DdBf_UqQ4syLSRsf3nNw-8" value="&amp;lt;&amp;lt;extend&amp;gt;&amp;gt;" style="edgeLabel;html=1;align=center;verticalAlign=middle;resizable=0;points=[];" vertex="1" connectable="0" parent="DdBf_UqQ4syLSRsf3nNw-7">
          <mxGeometry x="-0.05" relative="1" as="geometry">
            <mxPoint as="offset" />
          </mxGeometry>
        </mxCell>
        <mxCell id="DdBf_UqQ4syLSRsf3nNw-9" value="" style="endArrow=classic;html=1;rounded=0;exitX=0;exitY=0.5;exitDx=0;exitDy=0;entryX=1;entryY=0.5;entryDx=0;entryDy=0;" edge="1" parent="1" source="DdBf_UqQ4syLSRsf3nNw-6" target="DdBf_UqQ4syLSRsf3nNw-1">
          <mxGeometry width="50" height="50" relative="1" as="geometry">
            <mxPoint x="303" y="251" as="sourcePoint" />
            <mxPoint x="277" y="279" as="targetPoint" />
          </mxGeometry>
        </mxCell>
        <mxCell id="DdBf_UqQ4syLSRsf3nNw-10" value="&amp;lt;&amp;lt;extend&amp;gt;&amp;gt;" style="edgeLabel;html=1;align=center;verticalAlign=middle;resizable=0;points=[];" vertex="1" connectable="0" parent="DdBf_UqQ4syLSRsf3nNw-9">
          <mxGeometry x="-0.05" relative="1" as="geometry">
            <mxPoint as="offset" />
          </mxGeometry>
        </mxCell>
        <mxCell id="DdBf_UqQ4syLSRsf3nNw-11" value="" style="endArrow=classic;html=1;rounded=0;exitX=0;exitY=0;exitDx=0;exitDy=0;entryX=1;entryY=1;entryDx=0;entryDy=0;" edge="1" parent="1" source="DdBf_UqQ4syLSRsf3nNw-4" target="DdBf_UqQ4syLSRsf3nNw-1">
          <mxGeometry width="50" height="50" relative="1" as="geometry">
            <mxPoint x="335" y="300" as="sourcePoint" />
            <mxPoint x="290" y="300" as="targetPoint" />
          </mxGeometry>
        </mxCell>
        <mxCell id="DdBf_UqQ4syLSRsf3nNw-12" value="&amp;lt;&amp;lt;extend&amp;gt;&amp;gt;" style="edgeLabel;html=1;align=center;verticalAlign=middle;resizable=0;points=[];" vertex="1" connectable="0" parent="DdBf_UqQ4syLSRsf3nNw-11">
          <mxGeometry x="-0.05" relative="1" as="geometry">
            <mxPoint as="offset" />
          </mxGeometry>
        </mxCell>
      </root>
    </mxGraphModel>
  </diagram>
</mxfile>
